<?xml version="1.0" encoding="iso-8859-1"?>
<!-- Generator: Adobe Illustrator 19.0.0, SVG Export Plug-In . SVG Version: 6.00 Build 0)  -->
<svg xmlns="http://www.w3.org/2000/svg" xmlns:xlink="http://www.w3.org/1999/xlink" version="1.1" id="Layer_1" x="0px" y="0px" viewBox="0 0 512 512" style="enable-background:new 0 0 512 512;" xml:space="preserve">
<path style="fill:#F4D35E;" d="M275.66,78.686c-17.108,0-30.978-13.869-30.978-30.978V22.432c0-5.245,4.252-9.497,9.497-9.497  h46.758c5.245,0,9.497,4.252,9.497,9.497v25.277c-0.001,17.108-13.87,30.978-30.979,30.978H275.66z"/>
<path style="fill:#81F2C9;" d="M37.951,499.065c-16.766,0-30.405-13.64-30.405-30.405V291.256c0-16.766,13.64-30.405,30.405-30.405  h50.437v238.215H37.951z"/>
<path style="fill:#B2F7EF;" d="M422.535,499.065V260.851h51.515c16.766,0,30.405,13.64,30.405,30.405v177.405  c0,16.764-13.64,30.404-30.405,30.404H422.535z"/>
<rect x="50.661" y="260.851" style="fill:#F2B5D4;" width="410.678" height="238.215"/>
<path style="fill:#F79CC6;" d="M102.669,469.423c-16.766,0-30.405-13.64-30.405-30.405V261.614c0-0.255,0.013-0.509,0.019-0.763  H50.661v238.215h410.678v-29.642H102.669z"/>
<g>
	<path style="fill:#F4D35E;" d="M147.52,499.065l8.191-32.763c1.679-6.719,7.716-11.431,14.641-11.431h171.297   c6.925,0,12.962,4.714,14.641,11.431l8.191,32.763H147.52z"/>
	<path style="fill:#F4D35E;" d="M353.01,402.055c-12.184,0-22.097-9.912-22.097-22.097s9.912-22.097,22.097-22.097   c12.185,0,22.097,9.912,22.097,22.097S365.195,402.055,353.01,402.055z"/>
	<path style="fill:#F4D35E;" d="M406.905,348.16c-12.185,0-22.097-9.912-22.097-22.097s9.912-22.097,22.097-22.097   s22.097,9.912,22.097,22.097S419.09,348.16,406.905,348.16z"/>
	<path style="fill:#F4D35E;" d="M115.335,406.665v-19.999c0-3.407-2.762-6.169-6.169-6.169H89.167c-3.407,0-6.169-2.762-6.169-6.169   v-31.856c0-3.407,2.762-6.169,6.169-6.169h19.999c3.407,0,6.169-2.762,6.169-6.169v-19.999c0-3.407,2.762-6.169,6.169-6.169h31.856   c3.407,0,6.169,2.762,6.169,6.169v19.999c0,3.407,2.762,6.169,6.169,6.169h19.999c3.407,0,6.169,2.762,6.169,6.169v31.856   c0,3.407-2.762,6.169-6.169,6.169h-19.999c-3.407,0-6.169,2.762-6.169,6.169v19.999c0,3.407-2.762,6.169-6.169,6.169h-31.856   C118.096,412.834,115.335,410.072,115.335,406.665z"/>
</g>
<path d="M353.01,409.6c16.344,0,29.642-13.297,29.642-29.642c0-16.345-13.298-29.642-29.642-29.642  c-16.344,0-29.642,13.297-29.642,29.642C323.368,396.303,336.666,409.6,353.01,409.6z M353.01,366.484  c7.43,0,13.474,6.044,13.474,13.474s-6.044,13.474-13.474,13.474s-13.474-6.044-13.474-13.474S345.581,366.484,353.01,366.484z"/>
<path d="M406.905,355.705c16.344,0,29.642-13.297,29.642-29.642s-13.298-29.642-29.642-29.642s-29.642,13.297-29.642,29.642  S390.561,355.705,406.905,355.705z M406.905,312.589c7.43,0,13.474,6.044,13.474,13.474s-6.044,13.474-13.474,13.474  s-13.474-6.044-13.474-13.474S399.475,312.589,406.905,312.589z"/>
<path d="M191.326,328.758h-24.253v-24.253c0-4.465-3.618-8.084-8.084-8.084h-43.116c-4.466,0-8.084,3.62-8.084,8.084v24.253H83.537  c-4.466,0-8.084,3.62-8.084,8.084v43.116c0,4.465,3.618,8.084,8.084,8.084h24.253v24.253c0,4.465,3.618,8.084,8.084,8.084h43.116  c4.466,0,8.084-3.62,8.084-8.084v-24.253h24.253c4.466,0,8.084-3.62,8.084-8.084v-43.116  C199.411,332.377,195.792,328.758,191.326,328.758z M183.242,371.874h-24.253c-4.466,0-8.084,3.62-8.084,8.084v24.253h-26.947  v-24.253c0-4.465-3.618-8.084-8.084-8.084H91.621v-26.947h24.253c4.466,0,8.084-3.62,8.084-8.084v-24.253h26.947v24.253  c0,4.465,3.618,8.084,8.084,8.084h24.253V371.874z"/>
<path d="M474.049,253.305H264.084V204.8h121.263c16.344,0,29.642-13.297,29.642-29.642s-13.298-29.642-29.642-29.642H126.653  c-7.43,0-13.474-6.044-13.474-13.474s6.044-13.474,13.474-13.474h150.905c4.466,0,8.084-3.62,8.084-8.084V85.728  c18.31-2.97,32.337-18.885,32.337-38.02V13.474c0-4.465-3.618-8.084-8.084-8.084h-64.674c-4.466,0-8.084,3.62-8.084,8.084v34.235  c0,19.136,14.027,35.051,32.337,38.02V102.4H126.653c-16.344,0-29.642,13.297-29.642,29.642s13.298,29.642,29.642,29.642h258.695  c7.43,0,13.474,6.044,13.474,13.474s-6.044,13.474-13.474,13.474H256c-4.466,0-8.084,3.62-8.084,8.084v56.589H37.951  C17.024,253.305,0,270.33,0,291.256v177.405c0,20.925,17.024,37.949,37.951,37.949h436.099c20.926,0,37.95-17.024,37.95-37.951  V291.256C512,270.33,494.976,253.305,474.049,253.305z M253.305,47.709V21.558h48.505v26.151c0,12.326-10.029,22.354-22.354,22.354  h-3.795C263.334,70.063,253.305,60.034,253.305,47.709z M43.116,490.442h-5.165c-12.011,0-21.782-9.771-21.782-21.782V291.256  c0-12.011,9.771-21.782,21.782-21.782h5.165V490.442z M158.564,490.442l6.737-26.947h181.398l6.737,26.947H158.564z M495.832,468.66  c0,12.029-9.752,21.782-21.782,21.782h-5.165v-34.759c0-4.465-3.62-8.084-8.084-8.084l0,0c-4.465,0-8.084,3.62-8.084,8.084v34.759  h-82.614l-9.248-36.992c-0.9-3.599-4.134-6.124-7.843-6.124H158.99c-3.71,0-6.944,2.524-7.843,6.124l-9.248,36.992H59.284V269.474  h393.432v142.084c0,4.465,3.62,8.084,8.084,8.084l0,0c4.465,0,8.084-3.62,8.084-8.084V269.474h5.165  c12.03,0,21.782,9.752,21.782,21.782V468.66z"/>
<path d="M245.221,350.316h-21.558c-4.466,0-8.084,3.62-8.084,8.084c0,4.465,3.618,8.084,8.084,8.084h21.558  c4.466,0,8.084-3.62,8.084-8.084C253.305,353.935,249.687,350.316,245.221,350.316z"/>
<path d="M277.558,366.484h21.558c4.466,0,8.084-3.62,8.084-8.084c0-4.465-3.618-8.084-8.084-8.084h-21.558  c-4.466,0-8.084,3.62-8.084,8.084C269.474,362.865,273.092,366.484,277.558,366.484z"/>
<g>
</g>
<g>
</g>
<g>
</g>
<g>
</g>
<g>
</g>
<g>
</g>
<g>
</g>
<g>
</g>
<g>
</g>
<g>
</g>
<g>
</g>
<g>
</g>
<g>
</g>
<g>
</g>
<g>
</g>
</svg>
